<svg width="413" height="125" viewBox="0 0 413 125" fill="none" xmlns="http://www.w3.org/2000/svg">
<rect width="413" height="125" fill="#E5E5E5"/>
<path d="M0.5 23.5856V43.7365C0.5 44.8922 1.9892 45.3593 2.64921 44.4105L12.0419 30.9085C14.8981 26.8028 19.2583 23.9892 24.1761 23.0785L26.286 22.6878C28.7046 22.2399 31.2022 22.5389 33.4467 23.5451C39.5512 26.2816 42.2816 33.4487 39.5451 39.5533L39.4094 39.8559C38.4872 41.9133 37.0233 43.6814 35.1742 44.9715L23.0995 53.3957C20.6878 55.0783 21.5368 58.8395 24.4375 59.3229L36.9461 61.4077C39.3113 61.8019 41.7051 62 44.1029 62H49.2928C55.8971 62 62.3017 59.7348 67.4374 55.5825L70.0485 53.4714C77.838 47.1735 80.9008 36.7026 77.7332 27.1996C76.5924 23.7772 74.6953 20.6557 72.1827 18.067L69.4934 15.2963C63.0241 8.63087 54.4803 4.3637 45.2653 3.19561L33.6615 1.72469C27.3043 0.918849 20.847 1.57336 14.7808 3.63845C6.24167 6.54539 0.5 14.5653 0.5 23.5856Z" fill="white"/>
<path d="M81.6121 108.862L81.9175 108.42C84.5762 104.564 86 99.9921 86 95.3091C86 89.6357 83.9115 84.1609 80.133 79.9289L78.7018 78.326C75.2958 74.5112 70.9331 71.6749 66.0644 70.11L64.62 69.6457C61.2274 68.5552 57.6856 68 54.122 68H40.5H21.771C20.2963 68 19.7608 69.9439 21.0275 70.6991L36.7645 80.0807C40.0615 82.0463 41.4251 86.1276 39.9717 89.6803C38.7792 92.5954 35.9422 94.5 32.7925 94.5H27.1105C23.1719 94.5 19.3679 93.067 16.4083 90.4683L2.65165 78.3893C1.81394 77.6537 0.5 78.2486 0.5 79.3634V89.1649C0.5 101.919 8.62689 113.255 20.7057 117.349C26.8604 119.436 33.3151 120.5 39.8138 120.5H55.9837C58.3215 120.5 60.6529 120.255 62.9397 119.77L66.3301 119.051C72.5395 117.734 78.0083 114.088 81.6121 108.862Z" fill="white"/>
<path d="M80.8058 0.5H66.7532C64.1824 0.5 62.9547 3.6607 64.8514 5.396L74.7563 14.4579C80.0863 19.3343 83.5585 25.9095 84.5801 33.061L85.022 36.1544C85.658 40.6057 84.8812 45.1443 82.8013 49.1309C80.9695 52.6419 78.2029 55.5783 74.8071 57.6158L71.6523 59.5086C69.6185 60.7289 69.3917 63.5891 71.2079 65.1146L80 72.5L82.2628 74.9514C84.7404 77.6354 86.8036 80.6742 88.3842 83.9672L89.87 87.0625C91.2721 89.9835 92 93.1822 92 96.4222V97.6772C92 102.381 93.7951 106.907 97.0188 110.332C98.9794 112.416 101.397 114.015 104.082 115.004L110.83 117.49C116.234 119.481 121.948 120.5 127.707 120.5H132.423C138.039 120.5 143.552 118.999 148.392 116.152L156.989 111.095C157.643 110.71 158.145 110.112 158.412 109.402L158.743 108.518C159.618 106.185 157.327 103.913 155.001 104.807C154.67 104.935 154.318 105 153.964 105H147.804C143.308 105 138.851 104.159 134.664 102.521L133.095 101.907C116.862 95.5548 105.76 80.3973 104.6 63.0046L103.327 43.9057C103.111 40.6583 103.441 37.3975 104.304 34.2594L104.895 32.1083C107.143 23.9353 105.093 15.1801 99.451 8.85418C94.7107 3.53928 87.9275 0.5 80.8058 0.5Z" fill="white"/>
<path d="M134.103 62H148.606C149.863 62 151.114 61.8306 152.325 61.4964C159.448 59.5315 163.814 52.3645 162.291 45.134L161.556 41.6408C161.187 39.8903 160.557 38.2054 159.686 36.6431L152.541 23.8329C148.56 16.6943 143.092 10.4942 136.507 5.6522L135.201 4.69179C133.394 3.36357 134.334 0.5 136.576 0.5C154.021 0.5 169.993 10.2783 177.927 25.8145L189 47.5L198 64L200.425 62.2364C201.899 61.1643 203.99 61.9181 204.441 63.6841L208.106 78.0397C209.03 81.6573 210.518 85.1067 212.515 88.2609L214.546 91.4667C217.434 96.0266 221.751 99.5005 226.824 101.345L231.374 103C237.274 105.145 243.879 103.773 248.436 99.4558L249.418 98.5249C255.329 92.9253 255.763 83.6575 250.401 77.5301C248.685 75.5691 250.078 72.5 252.684 72.5H281.468C292.936 72.5 302.632 80.9892 304.147 92.356C305.008 98.8106 303.078 105.326 298.84 110.27L298.056 111.185C295.074 114.664 291.211 117.278 286.872 118.754L277.914 121.799C271.68 123.919 265.141 125 258.557 125H253.564C242.945 125 232.416 123.051 222.5 119.25C220.327 122.821 216.449 125 212.269 125H210.92C207.427 125 204.053 123.728 201.429 121.422L193.566 114.513C190.538 111.851 187.907 108.769 185.754 105.36L172.21 83.9154C167.722 76.8091 159.903 72.5 151.498 72.5C144.794 72.5 138.383 69.7524 133.76 64.8977L133.14 64.2467C132.333 63.4002 132.934 62 134.103 62Z" fill="white"/>
<path d="M261.251 5.7069L256.56 4.10508C249.62 1.73573 242.215 1.05193 234.959 2.11018L227.752 3.16118C210.397 5.69212 197.167 20.0003 196 37.5C196 42.3734 197.55 47.1206 200.425 51.0554L201.882 53.0496C203.37 55.085 206.543 54.5437 207.272 52.1303L210.781 40.5075C212.52 34.7476 216.509 29.9329 221.845 27.1536L222.755 26.6795C231.398 22.1779 242.002 24.2021 248.379 31.5711L250.405 33.9128C255.946 40.3159 256.062 49.7818 250.679 56.3184C248.813 58.5844 250.425 62 253.36 62H291.792C296.284 62 300.163 58.8532 301.088 54.4571C301.36 53.1665 301.36 51.8335 301.088 50.5429L300.264 46.6306C299.757 44.2204 298.939 41.8861 297.831 39.6862L295.936 35.9231C288.774 21.7002 276.322 10.852 261.251 5.7069Z" fill="white"/>
<path d="M329.5 72.5L316 54.5L293.5 24L276.476 3.99645C275.303 2.61883 276.282 0.5 278.091 0.5H292.861C306.04 0.5 317.117 10.3969 318.596 23.4926C319.185 28.7076 321.344 33.6206 324.788 37.5808L325.143 37.9896C328.007 41.283 331.61 43.8514 335.657 45.4846L346.065 49.6842C353.908 52.8488 360.879 57.8439 366.398 64.2523L368.658 66.8769C371.853 70.5869 374.26 74.9074 375.735 79.5761L376.704 82.6467C381.708 98.4933 373.973 115.565 358.758 122.25C354.631 124.064 350.172 125 345.664 125H329.883C327.316 125 324.771 124.529 322.374 123.61L320.738 122.983C314.717 120.675 310.395 115.316 309.414 108.942L308.964 106.016C308.544 103.284 311.967 101.712 313.766 103.81C317.26 107.887 322.809 109.555 327.972 108.08L328.732 107.862C338.2 105.157 342.524 94.2063 337.458 85.7628L329.5 72.5Z" fill="white"/>
<path d="M347.5 20.1624V32.7998C347.5 35.4642 350.936 36.5374 352.452 34.3468L361.311 21.5513C364.061 17.5789 367.751 14.3492 372.053 12.1504L386.817 4.60471C387.543 4.23356 388 3.48681 388 2.6713C388 1.47213 387.028 0.5 385.829 0.5H367.162C361.354 0.5 355.843 3.06816 352.107 7.5157C349.131 11.0581 347.5 15.5362 347.5 20.1624Z" fill="white"/>
<path d="M391.186 100.722L381.042 81.9709C379.9 79.8604 382.257 77.5839 384.326 78.7981L403.864 90.2602C410.187 93.9698 413.355 101.367 411.676 108.504C410.91 111.759 409.184 114.711 406.723 116.975L399.686 123.449C398.602 124.446 397.182 125 395.709 125C391.83 125 389.015 121.307 390.044 117.567L392.21 109.689C393.038 106.68 392.671 103.467 391.186 100.722Z" fill="white"/>
</svg>
